<?xml version="1.0" encoding="UTF-8" standalone="no"?>
<svg width="1190px" height="467px" viewBox="0 0 1190 467" version="1.1" xmlns="http://www.w3.org/2000/svg" xmlns:xlink="http://www.w3.org/1999/xlink" xmlns:sketch="http://www.bohemiancoding.com/sketch/ns">
    <!-- Generator: Sketch 3.3.3 (12081) - http://www.bohemiancoding.com/sketch -->
    <title>Shape</title>
    <desc>Created with Sketch.</desc>
    <defs></defs>
    <g id="Page-1" stroke="none" stroke-width="1" fill="none" fill-rule="evenodd" sketch:type="MSPage">
        <g id="ruby" sketch:type="MSLayerGroup" fill="#FFFFFF" opacity="0.0642490667">
            <g id="Page-1" sketch:type="MSShapeGroup">
                <path d="M1185.897,384.425 C1185.486,384.425 1185.073,384.476 1184.713,384.579 L1141.184,324.204 C1141.647,323.534 1141.905,322.71 1141.905,321.835 C1141.905,319.517 1140.102,317.661 1137.836,317.456 L1116.2,246.161 C1117.385,245.39 1118.157,244.05 1118.157,242.505 C1118.157,240.083 1116.2,238.126 1113.779,238.126 C1112.491,238.126 1111.306,238.692 1110.481,239.62 L1038.053,192.38 C1038.207,191.969 1038.26,191.453 1038.26,190.989 C1038.26,188.568 1036.302,186.61 1033.88,186.61 C1033.57,186.61 1033.262,186.661 1033.005,186.714 L994.731,126.082 C995.246,125.361 995.554,124.484 995.554,123.507 C995.554,121.086 993.597,119.128 991.176,119.128 C989.629,119.128 988.239,119.952 987.466,121.189 L906.178,93.989 C906.332,93.578 906.385,93.113 906.385,92.598 C906.385,90.177 904.426,88.22 902.005,88.22 C900.564,88.22 899.276,88.94 898.45,90.024 L835.45,43.249 C835.656,42.733 835.759,42.167 835.759,41.601 C835.759,39.18 833.801,37.222 831.38,37.222 C829.423,37.222 827.826,38.51 827.209,40.21 L743.961,32.586 C743.601,30.525 741.799,28.928 739.634,28.928 C738.089,28.928 736.749,29.753 735.926,30.937 L651.752,4.82 L651.752,4.409 C651.752,1.988 649.795,0.03 647.373,0.03 C644.952,0.03 642.994,1.988 642.994,4.409 L642.994,4.718 L557.636,19.194 C556.967,17.596 555.421,16.515 553.618,16.515 C551.66,16.515 549.961,17.855 549.445,19.606 L465.015,16.308 C464.396,14.608 462.799,13.424 460.893,13.424 C458.472,13.424 456.514,15.381 456.514,17.802 C456.514,18.009 456.514,18.266 456.566,18.472 L394.183,54.119 C393.359,53.192 392.175,52.573 390.835,52.573 C388.414,52.573 386.456,54.531 386.456,56.952 L386.456,57.211 L291.62,75.395 C290.847,74.056 289.456,73.179 287.808,73.179 C285.387,73.179 283.429,75.137 283.429,77.558 C283.429,78.177 283.584,78.794 283.79,79.362 L232.276,135.46 C231.503,134.842 230.576,134.532 229.546,134.532 C227.125,134.532 225.168,136.49 225.168,138.911 C225.168,139.477 225.271,140.045 225.477,140.56 L147.64,176.62 C146.867,175.486 145.528,174.715 144.034,174.715 C141.614,174.715 139.656,176.672 139.656,179.093 C139.656,180.638 140.48,181.978 141.665,182.75 L117.711,250.542 C117.402,250.489 117.042,250.438 116.732,250.438 C114.31,250.438 112.353,252.397 112.353,254.817 C112.353,255.692 112.611,256.516 113.074,257.239 L48.526,309.78 C47.702,308.801 46.517,308.132 45.127,308.132 C42.705,308.132 40.748,310.089 40.748,312.511 C40.748,314.726 42.396,316.579 44.56,316.839 L44.148,391.687 C42.191,392.152 40.749,393.851 40.749,395.962 C40.749,397.249 41.315,398.437 42.191,399.208 L3.55271368e-14,466.999 L1182.551,466.999 L1186.723,392.976 C1188.577,392.46 1189.968,390.759 1189.968,388.749 C1190.277,386.382 1188.319,384.425 1185.897,384.425 L1185.897,384.425 L1185.897,384.425 Z M1183.321,385.298 C1182.241,386.124 1181.518,387.36 1181.518,388.802 C1181.518,389.318 1181.622,389.781 1181.777,390.245 L1120.064,425.636 C1119.599,424.915 1118.93,424.294 1118.105,423.935 L1137.991,326.162 C1138.763,326.06 1139.484,325.75 1140.051,325.338 L1183.321,385.298 L1183.321,385.298 Z M981.904,392.665 C980.358,392.665 979.07,391.378 979.07,389.833 C979.07,388.286 980.358,386.999 981.904,386.999 C983.448,386.999 984.737,388.286 984.737,389.833 C984.737,391.378 983.448,392.665 981.904,392.665 L981.904,392.665 L981.904,392.665 Z M977.524,389.472 L853.326,405.648 C853.17,404.515 852.553,403.537 851.677,402.867 L897.781,307.824 C898.297,308.031 898.864,308.183 899.482,308.183 C900.254,308.183 901.026,307.978 901.645,307.617 L977.937,387.926 C977.731,388.39 977.576,388.905 977.524,389.472 L977.524,389.472 L977.524,389.472 Z M752.564,365.981 L821.953,285.981 C822.623,286.547 823.5,286.96 824.427,287.01 L847.093,402.35 C846.114,402.813 845.34,403.637 844.928,404.668 L752.771,368.66 C752.824,368.349 752.875,368.041 752.875,367.68 C752.925,367.063 752.823,366.497 752.564,365.981 L752.564,365.981 L752.564,365.981 Z M199.667,399.929 L97.98,415.794 C97.773,415.228 97.516,414.714 97.104,414.249 L176.022,327.089 C176.692,327.501 177.464,327.759 178.289,327.759 C178.702,327.759 179.114,327.706 179.526,327.605 L201.47,396.119 C200.388,396.943 199.719,398.178 199.719,399.621 C199.667,399.724 199.667,399.827 199.667,399.929 L199.667,399.929 L199.667,399.929 Z M47.599,392.255 L63.26,351.661 C63.775,351.868 64.342,352.02 64.96,352.02 L65.372,352.02 L90.975,413.836 C90.563,414.197 90.203,414.609 89.944,415.074 L49.506,397.455 C49.661,397.045 49.712,396.578 49.712,396.064 C49.763,394.417 48.887,393.026 47.599,392.255 L47.599,392.255 L47.599,392.255 Z M61.92,350.733 L46.105,391.686 C46.054,391.686 46.002,391.686 45.899,391.635 L46.311,316.785 L46.517,316.734 L61.868,344.5 C61.045,345.273 60.581,346.406 60.581,347.59 C60.581,348.829 61.096,349.96 61.92,350.733 L61.92,350.733 L61.92,350.733 Z M121.367,254.608 L162.784,241.42 L109.982,287.01 C109.726,286.805 109.416,286.598 109.107,286.444 L117.246,259.194 C119.564,259.09 121.368,257.184 121.368,254.815 L121.367,254.608 L121.367,254.608 Z M284.459,176.154 C284.613,176.514 284.768,176.824 285.025,177.133 L233.357,216.232 C232.585,215.151 231.297,214.43 229.803,214.43 C228.309,214.43 226.97,215.201 226.197,216.335 L148.411,180.533 L148.566,179.966 L284.459,176.154 L284.459,176.154 Z M292.29,78.586 L402.117,90.898 C402.117,91.002 402.117,91.105 402.169,91.208 L330.822,117.996 C330.05,116.809 328.71,116.038 327.165,116.038 C326.289,116.038 325.465,116.295 324.795,116.759 L291.26,80.597 C291.775,80.03 292.135,79.308 292.29,78.586 L292.29,78.586 L292.29,78.586 Z M394.904,59.167 L474.803,78.432 L474.803,78.586 L410.41,88.58 C409.689,87.138 408.195,86.158 406.495,86.158 C406.031,86.158 405.568,86.211 405.156,86.364 L393.308,60.761 C393.977,60.402 394.493,59.835 394.904,59.167 L394.904,59.167 L394.904,59.167 Z M479.129,75.341 C480.675,75.341 481.963,76.629 481.963,78.175 C481.963,79.72 480.675,81.007 479.129,81.007 C477.585,81.007 476.297,79.72 476.297,78.175 C476.297,76.629 477.584,75.341 479.129,75.341 L479.129,75.341 L479.129,75.341 Z M551.146,24.446 C551.866,25.012 552.846,25.374 553.824,25.374 C555.318,25.374 556.657,24.601 557.482,23.416 L601.113,45.155 C601.01,45.515 600.96,45.876 600.96,46.236 C600.96,46.391 600.96,46.546 601.011,46.7 L562.067,56.591 C561.449,54.891 559.852,53.654 557.945,53.654 C555.524,53.654 553.566,55.612 553.566,58.033 C553.566,58.291 553.566,58.497 553.618,58.704 L483.25,76.682 L483.199,76.578 L551.146,24.446 L551.146,24.446 Z M645.519,8.374 C645.776,8.477 645.982,8.631 646.24,8.683 L627.594,79.463 L627.49,79.463 C626.615,79.463 625.842,79.721 625.171,80.133 L607.863,49.842 C608.998,49.071 609.717,47.73 609.717,46.237 C609.717,45.362 609.46,44.589 609.047,43.919 L645.519,8.374 L645.519,8.374 Z M631.662,85.129 L721.964,74.877 L654.379,104.756 C653.607,103.52 652.216,102.643 650.671,102.643 C649.227,102.643 647.941,103.366 647.167,104.396 L630.322,87.138 C630.939,86.623 631.403,85.953 631.662,85.129 L631.662,85.129 L631.662,85.129 Z M737.831,37.272 L727.529,69.16 L727.425,69.16 C725.108,69.16 723.254,70.964 723.047,73.178 L631.817,83.532 L631.817,83.481 L736.03,35.675 C736.493,36.345 737.11,36.913 737.831,37.272 L737.831,37.272 L737.831,37.272 Z M742.88,36.449 L812.989,94.66 L812.836,94.813 L731.702,74.002 L731.702,73.537 C731.702,71.683 730.567,70.139 728.92,69.469 L739.17,37.685 L739.634,37.736 C741.026,37.736 742.106,37.221 742.88,36.449 L742.88,36.449 L742.88,36.449 Z M831.483,45.979 C831.947,45.979 832.411,45.875 832.875,45.772 L861.826,94.71 C861.206,95.328 860.795,96.152 860.639,97.029 L820.716,95.895 C820.304,94.709 819.428,93.731 818.296,93.215 L831.276,45.978 L831.483,45.979 L831.483,45.979 Z M869.346,98.11 L898.091,94.402 C898.761,95.896 900.307,96.977 902.058,96.977 C903.037,96.977 903.912,96.667 904.634,96.101 L952.438,126.392 L869.089,99.141 C869.243,98.832 869.295,98.471 869.346,98.11 L869.346,98.11 L869.346,98.11 Z M961.556,129.277 L987.107,125.156 C987.777,126.753 989.323,127.886 991.177,127.886 L991.486,127.886 L1002.973,191.04 C1002.767,191.144 1002.562,191.195 1002.407,191.35 L960.423,132.162 C961.092,131.388 961.505,130.358 961.556,129.277 L961.556,129.277 L961.556,129.277 Z M1008.846,195.987 L1029.967,192.844 C1030.172,193.256 1030.378,193.617 1030.688,193.926 L901.954,300.198 C901.542,299.889 901.026,299.684 900.564,299.581 L916.893,212.882 L917.048,212.882 C919.313,212.882 921.168,211.182 921.426,208.967 L1000.808,197.223 C1001.531,198.614 1003.025,199.54 1004.672,199.54 C1006.681,199.49 1008.433,197.996 1008.846,195.987 L1008.846,195.987 L1008.846,195.987 Z M1133.2,322.71 L985.304,387.052 C984.944,386.589 984.48,386.228 983.964,385.968 L1053.765,263.677 C1054.178,263.781 1054.59,263.882 1055.054,263.882 C1056.136,263.882 1057.165,263.47 1057.938,262.8 L1133.972,319.208 C1133.406,319.929 1133.097,320.856 1133.097,321.835 C1133.097,322.144 1133.147,322.452 1133.2,322.71 L1133.2,322.71 L1133.2,322.71 Z M1055.054,262.337 C1053.507,262.337 1052.221,261.05 1052.221,259.501 C1052.221,257.958 1053.507,256.671 1055.054,256.671 C1056.599,256.671 1057.887,257.958 1057.887,259.501 C1057.887,261.05 1056.599,262.337 1055.054,262.337 L1055.054,262.337 L1055.054,262.337 Z M1052.427,263.007 L982.471,385.505 L981.905,385.454 C980.77,385.454 979.69,385.919 978.917,386.638 L902.831,306.585 C903.449,305.814 903.86,304.835 903.86,303.804 C903.86,303.546 903.86,303.341 903.809,303.083 L1051.293,261.667 C1051.55,262.181 1051.963,262.646 1052.427,263.007 L1052.427,263.007 L1052.427,263.007 Z M848.998,401.938 L848.638,401.938 L826.024,286.856 C827.311,286.497 828.393,285.516 828.909,284.282 L895.207,303.341 L895.154,303.804 C895.154,305.042 895.671,306.175 896.546,306.999 L850.39,402.145 C849.925,401.989 849.461,401.938 848.998,401.938 L848.998,401.938 L848.998,401.938 Z M705.48,254.093 C705.533,253.837 705.533,253.579 705.533,253.322 L705.533,253.218 L873.879,202.632 C874.138,203.149 874.445,203.56 874.858,203.972 L825.817,278.41 C825.506,278.306 825.147,278.306 824.787,278.306 C823.14,278.306 821.695,279.234 820.924,280.624 L705.48,254.093 L705.48,254.093 Z M668.958,287.938 C668.905,287.374 668.752,286.856 668.495,286.34 L698.731,256.977 C699.454,257.442 700.278,257.7 701.154,257.7 C702.751,257.7 704.14,256.823 704.914,255.587 L818.502,281.655 L668.958,287.938 L668.958,287.938 Z M695.333,322.763 L620.071,357.534 C619.813,357.069 619.504,356.606 619.092,356.245 L663.137,292.522 C663.6,292.678 664.064,292.782 664.528,292.782 C665.662,292.782 666.641,292.37 667.413,291.647 L696.261,318.95 C695.54,319.723 695.127,320.753 695.127,321.886 C695.229,322.144 695.28,322.452 695.333,322.763 L695.333,322.763 L695.333,322.763 Z M617.805,355.368 C617.289,355.165 616.723,355.061 616.157,355.061 C613.736,355.061 611.779,357.018 611.779,359.438 L611.779,359.647 L408.196,348.157 L660.769,290.565 C661.026,291.028 661.387,291.442 661.799,291.751 L617.805,355.368 L617.805,355.368 Z M618.99,359.438 C618.99,360.985 617.701,362.272 616.156,362.272 C614.611,362.272 613.321,360.985 613.321,359.438 C613.321,357.893 614.611,356.606 616.156,356.606 C617.701,356.606 618.99,357.894 618.99,359.438 L618.99,359.438 L618.99,359.438 Z M399.026,348.519 L305.528,364.642 L305.373,364.23 L414.582,284.541 C415.098,284.949 415.715,285.26 416.385,285.414 L403.043,343.728 C400.775,343.935 399.025,345.789 399.025,348.107 L399.026,348.519 L399.026,348.519 Z M301.407,361.757 C300.273,361.757 299.243,362.222 298.47,362.892 L203.788,290.412 C204.046,289.896 204.252,289.381 204.303,288.764 L413.037,281.862 C413.14,282.376 413.346,282.891 413.604,283.303 L304.446,362.996 C303.622,362.222 302.592,361.757 301.407,361.757 L301.407,361.757 L301.407,361.757 Z M304.24,366.138 C304.24,367.681 302.952,368.97 301.407,368.97 C299.862,368.97 298.574,367.681 298.574,366.138 C298.574,364.591 299.862,363.302 301.407,363.302 C302.952,363.302 304.24,364.591 304.24,366.138 L304.24,366.138 L304.24,366.138 Z M181.277,320.187 L198.019,292.265 C198.586,292.523 199.256,292.73 199.925,292.73 C201.058,292.73 202.037,292.318 202.81,291.648 L297.081,363.82 L182.668,323.431 L182.668,323.38 C182.667,322.144 182.153,321.011 181.277,320.187 L181.277,320.187 L181.277,320.187 Z M179.99,319.36 C179.474,319.157 178.856,319.001 178.289,319.001 C177.722,319.001 177.207,319.105 176.744,319.312 L152.686,291.699 C152.996,291.236 153.15,290.722 153.253,290.156 L195.649,289.072 C195.804,289.949 196.216,290.771 196.783,291.39 L179.99,319.36 L179.99,319.36 Z M181.123,323.38 C181.123,324.925 179.835,326.212 178.29,326.212 C176.745,326.212 175.457,324.925 175.457,323.38 C175.457,321.835 176.745,320.546 178.29,320.546 C179.834,320.546 181.123,321.835 181.123,323.38 L181.123,323.38 L181.123,323.38 Z M164.072,242.349 C164.638,242.607 165.257,242.761 165.926,242.761 C168.141,242.761 169.944,241.113 170.253,239.001 L225.218,221.485 L113.691,285.827 L164.072,242.349 L164.072,242.349 Z M227.073,222.208 C227.382,222.466 227.743,222.671 228.104,222.825 L200.595,284.022 C200.389,283.971 200.132,283.971 199.925,283.971 C197.814,283.971 196.01,285.516 195.65,287.526 L153.254,288.608 C152.894,286.547 151.09,285.001 148.927,285.001 C146.712,285.001 144.858,286.702 144.6,288.813 L111.528,289.69 L111.374,288.967 L227.073,222.208 L227.073,222.208 Z M286.211,178.214 C286.881,178.627 287.705,178.884 288.529,178.884 C289.456,178.884 290.333,178.574 291.053,178.06 L371.569,242.245 L371.414,242.606 L309.856,232.096 L309.856,231.686 C309.856,229.264 307.898,227.307 305.478,227.307 C303.417,227.307 301.717,228.748 301.253,230.655 L234.131,219.169 L234.131,218.808 C234.131,218.396 234.08,218.035 233.976,217.675 L286.211,178.214 L286.211,178.214 Z M325.104,124.279 C325.722,124.589 326.392,124.795 327.165,124.795 C328.864,124.795 330.359,123.816 331.08,122.375 L369.767,134.994 C369.716,135.253 369.664,135.561 369.664,135.819 C369.664,136.128 369.716,136.437 369.767,136.694 L292.548,172.651 C292.445,172.393 292.291,172.135 292.085,171.879 L325.104,124.279 L325.104,124.279 Z M324.33,120.417 C324.33,118.87 325.619,117.583 327.164,117.583 C328.709,117.583 329.997,118.87 329.997,120.417 C329.997,121.962 328.708,123.249 327.164,123.249 C325.619,123.249 324.33,121.961 324.33,120.417 L324.33,120.417 L324.33,120.417 Z M404.332,94.35 C404.745,94.607 405.259,94.762 405.775,94.865 L412.574,157.352 C411.75,157.816 411.131,158.536 410.72,159.412 L378.112,137.416 C378.317,136.952 378.42,136.387 378.42,135.87 C378.42,134.634 377.905,133.5 377.082,132.728 L404.332,94.35 L404.332,94.35 Z M410.565,92.186 L465.993,108.362 L465.993,108.619 C465.993,109.495 466.251,110.268 466.663,110.937 L417.622,157.866 C416.849,157.196 415.818,156.785 414.737,156.785 C414.48,156.785 414.274,156.785 414.015,156.837 L407.267,94.865 C408.762,94.556 409.999,93.525 410.565,92.186 L410.565,92.186 L410.565,92.186 Z M479.129,82.554 C480.108,82.554 481.036,82.193 481.756,81.626 L519.825,111.143 C519.619,111.453 519.465,111.762 519.31,112.122 L474.699,108.154 C474.544,106.557 473.566,105.218 472.226,104.55 L478.768,82.45 C478.923,82.554 479.026,82.554 479.129,82.554 L479.129,82.554 L479.129,82.554 Z M483.508,78.226 L554.134,60.247 C554.391,60.711 554.752,61.124 555.164,61.484 L525.286,109.752 C524.719,109.494 524.101,109.34 523.432,109.34 C522.505,109.34 521.681,109.598 520.96,110.112 L482.788,80.544 C483.25,79.823 483.508,79.049 483.508,78.226 L483.508,78.226 L483.508,78.226 Z M625.48,87.704 L605.389,169.509 L606.111,50.565 L606.471,50.513 L624.036,81.267 C623.47,81.988 623.161,82.915 623.161,83.893 C623.109,85.542 624.09,86.983 625.48,87.704 L625.48,87.704 L625.48,87.704 Z M628.932,87.962 L646.446,105.889 C646.343,106.25 646.293,106.61 646.293,107.022 C646.293,108.052 646.653,108.979 647.221,109.702 L606.731,171.363 L606.577,171.26 L626.976,88.168 L627.489,88.22 C628.004,88.22 628.468,88.117 628.932,87.962 L628.932,87.962 L628.932,87.962 Z M723.665,75.804 C724.438,77.092 725.829,77.917 727.425,77.917 C727.89,77.917 728.301,77.865 728.713,77.711 L766.163,135.355 C765.546,135.767 765.032,136.386 764.723,137.054 L654.843,108.412 C654.997,107.949 655.049,107.485 655.049,107.021 C655.049,106.712 654.997,106.455 654.945,106.197 L723.665,75.804 L723.665,75.804 Z M727.425,70.706 C728.971,70.706 730.259,71.993 730.259,73.538 C730.259,75.085 728.971,76.372 727.425,76.372 C725.88,76.372 724.592,75.085 724.592,73.538 C724.592,71.993 725.88,70.706 727.425,70.706 L727.425,70.706 L727.425,70.706 Z M731.341,75.496 L812.269,96.257 C812.219,96.567 812.166,96.927 812.166,97.235 C812.166,97.905 812.321,98.523 812.579,99.089 L771.83,135.974 C771.007,135.098 769.873,134.583 768.638,134.583 C768.278,134.583 767.916,134.634 767.556,134.737 L730.105,77.042 C730.62,76.578 731.032,76.062 731.341,75.496 L731.341,75.496 L731.341,75.496 Z M820.924,97.441 L860.693,98.574 C860.899,99.656 861.517,100.635 862.393,101.253 L845.033,142.877 C844.827,142.826 844.57,142.826 844.363,142.826 C843.746,142.826 843.177,142.928 842.611,143.186 L819.481,100.428 C820.356,99.656 820.872,98.625 820.924,97.441 L820.924,97.441 L820.924,97.441 Z M848.741,147.409 L953.055,130.668 C953.365,131.543 953.93,132.266 954.652,132.78 L918.284,204.332 C917.873,204.229 917.46,204.126 916.996,204.126 C915.811,204.126 914.729,204.59 913.905,205.414 L847.967,149.676 C848.431,149.058 848.689,148.234 848.741,147.409 L848.741,147.409 L848.741,147.409 Z M959.187,133.088 L1001.221,192.329 C1000.603,193.101 1000.192,194.08 1000.192,195.11 C1000.192,195.316 1000.192,195.522 1000.244,195.677 L921.222,207.369 C920.965,206.39 920.399,205.567 919.625,205 L956.045,133.396 C956.405,133.498 956.766,133.55 957.178,133.55 C957.897,133.552 958.567,133.398 959.187,133.088 L959.187,133.088 L959.187,133.088 Z M895.567,301.847 L829.166,282.788 L829.166,282.684 C829.166,281.19 828.393,279.85 827.258,279.077 L876.198,204.846 C876.713,205.052 877.279,205.207 877.897,205.207 L878.206,205.207 L897.473,299.991 C896.648,300.353 895.979,301.022 895.567,301.847 L895.567,301.847 L895.567,301.847 Z M664.579,291.185 C663.033,291.185 661.746,289.896 661.746,288.351 C661.746,286.806 663.033,285.517 664.579,285.517 C666.124,285.517 667.412,286.806 667.412,288.351 C667.412,289.896 666.124,291.185 664.579,291.185 L664.579,291.185 L664.579,291.185 Z M421.846,280.313 L543.573,231.12 C544.346,232.253 545.686,232.974 547.128,232.974 C548.364,232.974 549.445,232.458 550.27,231.687 L660.304,287.476 C660.252,287.63 660.252,287.785 660.252,287.939 L421.846,280.313 L421.846,280.313 Z M420.043,277.739 C419.27,277.12 418.342,276.759 417.313,276.759 C416.489,276.759 415.768,276.966 415.098,277.38 L378.884,246.935 C379.554,246.162 379.967,245.183 379.967,244.05 C379.967,243.739 379.915,243.482 379.864,243.173 L483.509,206.702 L484.128,207.32 L420.043,277.739 L420.043,277.739 Z M420.146,281.138 C420.146,282.685 418.859,283.972 417.313,283.972 C415.768,283.972 414.48,282.685 414.48,281.138 C414.48,279.593 415.768,278.306 417.313,278.306 C418.859,278.306 420.146,279.593 420.146,281.138 L420.146,281.138 L420.146,281.138 Z M305.528,236.065 C306.816,236.065 308.001,235.499 308.825,234.571 L413.191,279.643 C413.088,279.85 413.037,280.108 412.986,280.366 L204.149,287.268 C204.097,287.063 204.046,286.907 203.942,286.702 L302.076,234.364 C302.901,235.396 304.137,236.065 305.528,236.065 L305.528,236.065 L305.528,236.065 Z M302.695,231.687 C302.695,230.14 303.983,228.853 305.528,228.853 C307.073,228.853 308.361,230.14 308.361,231.687 C308.361,233.232 307.073,234.519 305.528,234.519 C303.983,234.519 302.695,233.231 302.695,231.687 L302.695,231.687 L302.695,231.687 Z M311.091,233.901 L371.209,244.202 C371.26,246.573 373.217,248.479 375.587,248.479 C376.308,248.479 377.029,248.272 377.647,247.963 L413.655,278.201 L311.091,233.901 L311.091,233.901 Z M292.753,175.69 L355.806,169.508 C356.114,171.569 357.917,173.218 360.081,173.218 L373.526,240.186 C373.113,240.391 372.803,240.649 372.496,240.957 L292.134,176.977 C292.392,176.567 292.599,176.154 292.753,175.69 L292.753,175.69 L292.753,175.69 Z M373.32,140.198 L374.247,235.909 L361.575,172.959 C363.276,172.342 364.511,170.744 364.511,168.839 C364.511,167.139 363.584,165.695 362.193,164.976 L372.96,140.095 L373.32,140.198 L373.32,140.198 Z M413.655,165.335 L420.61,201.962 L420.353,202.116 L377.235,138.908 L377.338,138.806 L410.359,161.11 L410.359,161.163 C410.359,163.121 411.75,164.873 413.655,165.335 L413.655,165.335 L413.655,165.335 Z M414.737,158.279 C416.282,158.279 417.57,159.567 417.57,161.111 C417.57,162.657 416.282,163.945 414.737,163.945 C413.191,163.945 411.904,162.657 411.904,161.111 C411.904,159.567 413.191,158.279 414.737,158.279 L414.737,158.279 L414.737,158.279 Z M467.694,112.02 C468.054,112.328 468.467,112.534 468.93,112.689 L464.86,144.37 C462.594,144.525 460.841,146.431 460.841,148.749 C460.841,148.955 460.841,149.161 460.893,149.366 L418.96,159.979 C418.858,159.669 418.755,159.36 418.6,159.103 L467.694,112.02 L467.694,112.02 Z M474.596,109.752 L519.053,113.72 L519.053,113.771 C519.053,114.595 519.31,115.418 519.722,116.088 L489.741,142.412 C488.969,141.742 487.939,141.33 486.857,141.33 C486.651,141.33 486.496,141.33 486.29,141.382 L472.741,112.277 C473.617,111.659 474.287,110.783 474.596,109.752 L474.596,109.752 L474.596,109.752 Z M527.707,114.647 L567.991,120.159 C568.042,121.087 568.403,121.962 568.97,122.681 L504.733,182.747 C504.526,182.593 504.27,182.489 504.012,182.335 L523.381,118.098 L523.484,118.098 C525.544,118.098 527.295,116.605 527.707,114.647 L527.707,114.647 L527.707,114.647 Z M574.172,123.868 L601.32,171.827 C600.497,172.651 599.929,173.733 599.929,175.02 L599.98,175.742 L506.586,185.581 C506.483,184.911 506.174,184.294 505.813,183.778 L570.103,123.662 C570.773,124.074 571.545,124.279 572.318,124.279 C573.039,124.279 573.605,124.125 574.172,123.868 L574.172,123.868 L574.172,123.868 Z M648.764,110.937 C649.331,111.247 650.001,111.401 650.671,111.401 C652.009,111.401 653.246,110.783 654.019,109.804 L764.259,138.548 L764.259,138.96 C764.259,139.424 764.363,139.888 764.465,140.3 L607.243,203.559 C606.935,202.941 606.523,202.374 606.008,201.962 L648.764,110.937 L648.764,110.937 Z M768.638,136.127 C770.183,136.127 771.472,137.415 771.472,138.96 C771.472,140.506 770.183,141.794 768.638,141.794 C767.091,141.794 765.803,140.506 765.803,138.96 C765.803,137.416 767.091,136.127 768.638,136.127 L768.638,136.127 L768.638,136.127 Z M813.506,100.377 L813.659,100.531 L781.258,163.532 C780.999,163.481 780.742,163.481 780.485,163.481 C779.97,163.481 779.506,163.584 779.095,163.738 L771.472,142.359 C772.449,141.536 773.016,140.35 773.016,139.01 C773.016,138.444 772.912,137.877 772.706,137.363 L813.506,100.377 L813.506,100.377 Z M703.576,249.663 C702.853,249.2 702.029,248.942 701.154,248.942 C700.432,248.942 699.712,249.147 699.093,249.458 L678.332,214.686 C679.519,213.913 680.239,212.575 680.239,211.081 C680.239,210.72 680.186,210.411 680.135,210.102 L776.723,170.076 L776.776,170.129 L703.576,249.663 L703.576,249.663 Z M673.079,211.081 C673.079,209.535 674.367,208.247 675.912,208.247 C677.458,208.247 678.745,209.535 678.745,211.081 C678.745,212.626 677.458,213.913 675.912,213.913 C674.367,213.913 673.079,212.625 673.079,211.081 L673.079,211.081 L673.079,211.081 Z M671.637,210.205 L608.738,205.62 L771.625,170.488 L679.57,208.66 C678.798,207.474 677.459,206.701 675.913,206.701 C673.801,206.702 672.049,208.196 671.637,210.205 L671.637,210.205 L671.637,210.205 Z M550.939,226.481 C550.219,225.143 548.777,224.215 547.128,224.215 C545.427,224.215 543.934,225.194 543.212,226.688 L533.321,222.567 C533.425,222.208 533.476,221.796 533.476,221.381 L533.476,221.125 L595.24,208.607 L550.939,226.481 L550.939,226.481 Z M544.295,228.595 C544.295,227.048 545.583,225.761 547.128,225.761 C548.674,225.761 549.961,227.048 549.961,228.595 C549.961,230.14 548.673,231.427 547.128,231.427 C545.583,231.427 544.295,230.14 544.295,228.595 L544.295,228.595 L544.295,228.595 Z M525.286,219.22 L491.081,204.95 C491.184,204.59 491.235,204.229 491.235,203.868 C491.235,201.448 489.277,199.49 486.856,199.49 C485.26,199.49 483.92,200.314 483.147,201.601 L464.139,193.668 C464.294,193.359 464.346,192.998 464.397,192.637 L498.293,188.105 C498.963,189.65 500.508,190.732 502.311,190.732 C502.826,190.732 503.342,190.629 503.805,190.474 L525.904,218.446 C525.647,218.651 525.491,218.911 525.286,219.22 L525.286,219.22 L525.286,219.22 Z M375.587,246.882 C374.041,246.882 372.753,245.595 372.753,244.05 C372.753,242.505 374.041,241.216 375.587,241.216 C377.132,241.216 378.42,242.505 378.42,244.05 C378.42,245.595 377.133,246.882 375.587,246.882 L375.587,246.882 L375.587,246.882 Z M379.244,241.679 L419.631,209.278 C420.404,209.948 421.383,210.307 422.465,210.307 C424.576,210.307 426.328,208.814 426.74,206.856 L482.736,205.31 L482.787,205.362 L379.347,241.732 L379.244,241.679 L379.244,241.679 Z M419.116,161.473 L461.408,150.809 C461.924,151.788 462.799,152.509 463.829,152.87 L459.297,187.693 C458.112,187.899 457.133,188.62 456.463,189.599 L418.24,163.79 C418.704,163.172 419.013,162.348 419.116,161.473 L419.116,161.473 L419.116,161.473 Z M465.221,145.916 C466.766,145.916 468.054,147.204 468.054,148.749 C468.054,150.294 466.766,151.583 465.221,151.583 C463.676,151.583 462.388,150.294 462.388,148.749 C462.388,147.204 463.676,145.916 465.221,145.916 L465.221,145.916 L465.221,145.916 Z M469.599,149.161 L482.736,147.049 C483.044,147.925 483.56,148.697 484.331,149.213 L461.357,187.849 C461.202,187.796 461.047,187.745 460.841,187.745 L465.375,153.179 C467.54,153.076 469.394,151.324 469.599,149.161 L469.599,149.161 L469.599,149.161 Z M486.856,142.826 C488.402,142.826 489.69,144.113 489.69,145.658 C489.69,147.204 488.402,148.492 486.856,148.492 C485.312,148.492 484.024,147.204 484.024,145.658 C484.024,144.113 485.312,142.826 486.856,142.826 L486.856,142.826 L486.856,142.826 Z M520.753,117.17 C521.062,117.428 521.422,117.634 521.834,117.789 L502.465,181.975 L502.311,181.975 C501.848,181.975 501.384,182.026 500.971,182.18 L489.483,149.16 C490.566,148.336 491.234,147.099 491.234,145.657 C491.234,144.884 491.028,144.216 490.719,143.595 L520.753,117.17 L520.753,117.17 Z M598.949,206.186 L598.949,206.29 L533.064,219.632 C532.395,218.085 530.849,217.005 529.046,217.005 C528.325,217.005 527.655,217.158 527.088,217.468 L505.143,189.651 C505.556,189.291 505.865,188.879 506.122,188.416 L598.949,206.186 L598.949,206.186 Z M603.639,179.348 L602.711,201.086 C600.806,201.344 599.312,202.787 598.949,204.642 L507.153,187.125 L600.497,177.287 C601.217,178.369 602.299,179.142 603.639,179.348 L603.639,179.348 L603.639,179.348 Z M606.111,205.414 C606.111,206.96 604.822,208.247 603.278,208.247 C601.732,208.247 600.444,206.96 600.444,205.414 C600.444,203.868 601.732,202.581 603.278,202.581 C604.822,202.581 606.111,203.868 606.111,205.414 L606.111,205.414 L606.111,205.414 Z M505.144,186.354 C505.144,187.899 503.856,189.186 502.311,189.186 C500.765,189.186 499.477,187.899 499.477,186.354 C499.477,184.807 500.765,183.52 502.311,183.52 C503.856,183.52 505.144,184.807 505.144,186.354 L505.144,186.354 L505.144,186.354 Z M497.933,186.354 L497.933,186.611 L464.346,191.093 C464.139,190.063 463.522,189.135 462.697,188.518 L485.673,149.882 C486.033,149.986 486.445,150.036 486.857,150.036 C487.27,150.036 487.682,149.985 488.094,149.882 L499.633,182.953 C498.603,183.727 497.933,184.963 497.933,186.354 L497.933,186.354 L497.933,186.354 Z M482.478,203.765 L426.894,205.31 L456.412,194.493 C457.185,195.679 458.524,196.45 460.07,196.45 C461.358,196.45 462.491,195.885 463.263,195.059 L482.53,203.095 C482.53,203.25 482.478,203.507 482.478,203.765 L482.478,203.765 L482.478,203.765 Z M460.07,189.186 C461.615,189.186 462.903,190.475 462.903,192.02 C462.903,193.565 461.615,194.854 460.07,194.854 C458.524,194.854 457.237,193.565 457.237,192.02 C457.237,190.475 458.524,189.186 460.07,189.186 L460.07,189.186 L460.07,189.186 Z M416.952,164.873 L455.793,191.041 C455.742,191.351 455.691,191.66 455.691,192.02 C455.691,192.38 455.742,192.69 455.793,192.999 L426.276,203.816 C425.555,202.425 424.062,201.499 422.412,201.499 L422.052,201.499 L415.252,165.439 C415.871,165.387 416.437,165.182 416.952,164.873 L416.952,164.873 L416.952,164.873 Z M419.631,205.929 C419.631,204.382 420.919,203.095 422.465,203.095 C424.01,203.095 425.299,204.382 425.299,205.929 C425.299,207.474 424.01,208.761 422.465,208.761 C420.918,208.761 419.631,207.474 419.631,205.929 L419.631,205.929 L419.631,205.929 Z M484.024,203.868 C484.024,202.324 485.312,201.035 486.856,201.035 C488.402,201.035 489.69,202.324 489.69,203.868 C489.69,205.414 488.402,206.702 486.856,206.702 C485.312,206.702 484.024,205.414 484.024,203.868 L484.024,203.868 L484.024,203.868 Z M529.097,218.55 C530.643,218.55 531.93,219.837 531.93,221.382 C531.93,222.929 530.643,224.216 529.097,224.216 C527.553,224.216 526.264,222.929 526.264,221.382 C526.265,219.837 527.553,218.55 529.097,218.55 L529.097,218.55 L529.097,218.55 Z M600.033,208.35 C600.857,209.226 601.99,209.791 603.278,209.791 C605.081,209.791 606.678,208.659 607.295,207.113 L667.929,211.491 L553.567,227.1 L600.033,208.35 L600.033,208.35 Z M768.638,143.339 C769.151,143.339 769.615,143.236 770.079,143.082 L777.703,164.408 C776.724,165.232 776.107,166.417 776.107,167.808 L776.107,167.962 L611.984,203.352 L765.236,141.691 C766.009,142.669 767.246,143.339 768.638,143.339 L768.638,143.339 L768.638,143.339 Z M777.65,167.809 C777.65,166.263 778.938,164.976 780.484,164.976 C782.03,164.976 783.317,166.263 783.317,167.809 C783.317,169.354 782.03,170.642 780.484,170.642 C778.938,170.642 777.65,169.354 777.65,167.809 L777.65,167.809 L777.65,167.809 Z M604.668,201.241 C604.514,201.19 604.411,201.137 604.255,201.137 L605.184,179.295 C607.193,178.884 608.687,177.132 608.687,175.02 C608.687,174.042 608.377,173.166 607.863,172.445 L644.078,117.275 L604.668,201.241 L604.668,201.241 Z M604.308,172.188 C605.854,172.188 607.142,173.475 607.142,175.02 C607.142,176.567 605.854,177.854 604.308,177.854 C602.763,177.854 601.474,176.567 601.474,175.02 C601.474,173.475 602.763,172.188 604.308,172.188 L604.308,172.188 L604.308,172.188 Z M526.265,113.72 C526.265,115.265 524.977,116.552 523.432,116.552 C521.887,116.552 520.6,115.265 520.6,113.72 C520.6,112.173 521.887,110.885 523.432,110.885 C524.977,110.885 526.265,112.173 526.265,113.72 L526.265,113.72 L526.265,113.72 Z M471.351,112.843 L484.797,141.794 C483.457,142.515 482.53,143.906 482.478,145.503 L469.445,147.614 C469.034,146.12 467.901,144.987 466.406,144.576 L470.475,112.997 L471.351,112.843 L471.351,112.843 Z M375.948,139.785 L419.116,203.045 C418.446,203.816 418.034,204.796 418.034,205.878 C418.034,206.65 418.24,207.371 418.6,207.99 L378.162,240.495 C377.493,239.979 376.668,239.671 375.741,239.62 L374.814,140.095 C375.226,140.095 375.638,139.992 375.948,139.785 L375.948,139.785 L375.948,139.785 Z M362.966,168.839 C362.966,170.384 361.679,171.671 360.133,171.671 C358.588,171.671 357.3,170.384 357.3,168.839 C357.3,167.293 358.588,166.005 360.133,166.005 C361.679,166.005 362.966,167.293 362.966,168.839 L362.966,168.839 L362.966,168.839 Z M485.621,208.041 C486.032,208.145 486.444,208.247 486.856,208.247 C488.351,208.247 489.69,207.475 490.462,206.341 L524.771,220.662 C524.719,220.92 524.719,221.127 524.719,221.383 C524.719,223.805 526.677,225.762 529.097,225.762 C530.54,225.762 531.827,225.041 532.652,223.959 L542.802,228.184 L542.802,228.596 C542.802,229.008 542.853,229.369 542.956,229.731 L421.125,278.924 L421.125,278.875 L485.621,208.041 L485.621,208.041 Z M660.87,286.032 L551.146,230.397 C551.352,229.934 551.455,229.469 551.506,228.956 L671.79,212.522 C672.203,213.656 673.027,214.584 674.109,215.047 L664.63,283.971 L664.578,283.971 C663.033,283.972 661.643,284.796 660.87,286.032 L660.87,286.032 L660.87,286.032 Z M667.515,285.104 C667.105,284.745 666.691,284.487 666.177,284.282 L675.604,215.459 L675.913,215.459 C676.273,215.459 676.583,215.406 676.943,215.355 L697.91,250.436 C697.24,251.209 696.828,252.239 696.828,253.321 C696.828,254.3 697.138,255.176 697.652,255.895 L667.515,285.104 L667.515,285.104 Z M698.32,253.321 C698.32,251.776 699.608,250.487 701.154,250.487 C702.699,250.487 703.987,251.776 703.987,253.321 C703.987,254.866 702.699,256.153 701.154,256.153 C699.608,256.153 698.32,254.866 698.32,253.321 L698.32,253.321 L698.32,253.321 Z M704.708,250.745 L777.857,171.26 C778.578,171.826 779.505,172.188 780.536,172.188 C782.03,172.188 783.369,171.415 784.193,170.23 L873.622,199.954 C873.571,200.211 873.518,200.52 873.518,200.777 L873.518,201.137 L705.274,251.673 L704.708,250.745 L704.708,250.745 Z M874.138,198.51 L784.761,168.838 C784.812,168.529 784.864,168.17 784.864,167.859 C784.864,167.653 784.864,167.447 784.812,167.242 L840.5,149.365 C841.221,150.705 842.663,151.633 844.363,151.633 C844.827,151.633 845.238,151.582 845.65,151.427 L875.065,197.429 C874.704,197.739 874.396,198.099 874.138,198.51 L874.138,198.51 L874.138,198.51 Z M912.823,207.217 L882.224,200.726 C882.172,198.356 880.215,196.399 877.845,196.399 C877.329,196.399 876.866,196.502 876.404,196.656 L847.401,151.273 L913.029,206.702 C912.927,206.856 912.875,207.01 912.823,207.217 L912.823,207.217 L912.823,207.217 Z M877.846,197.944 C879.392,197.944 880.679,199.232 880.679,200.777 C880.679,202.324 879.392,203.611 877.846,203.611 C876.3,203.611 875.013,202.324 875.013,200.777 C875.013,199.232 876.3,197.944 877.846,197.944 L877.846,197.944 L877.846,197.944 Z M898.966,299.478 L898.915,299.478 L879.65,204.796 C880.73,204.28 881.554,203.405 881.967,202.272 L912.616,208.762 C912.72,210.463 913.802,211.956 915.346,212.575 L898.966,299.478 L898.966,299.478 Z M914.163,208.504 C914.163,206.959 915.45,205.671 916.996,205.671 C918.541,205.671 919.83,206.959 919.83,208.504 C919.83,210.05 918.541,211.338 916.996,211.338 C915.45,211.338 914.163,210.05 914.163,208.504 L914.163,208.504 L914.163,208.504 Z M844.362,150.037 C842.816,150.037 841.529,148.749 841.529,147.204 C841.529,145.658 842.816,144.37 844.362,144.37 C845.907,144.37 847.196,145.658 847.196,147.204 C847.196,148.749 845.907,150.037 844.362,150.037 L844.362,150.037 L844.362,150.037 Z M818.245,101.252 L841.375,144.009 C840.55,144.78 840.034,145.915 840.034,147.152 C840.034,147.358 840.034,147.564 840.087,147.769 L784.399,165.645 C784.039,164.924 783.472,164.358 782.752,163.945 L815,101.202 C815.513,101.408 816.029,101.511 816.597,101.511 C817.163,101.613 817.729,101.51 818.245,101.252 L818.245,101.252 L818.245,101.252 Z M650.671,109.855 C649.124,109.855 647.837,108.568 647.837,107.022 C647.837,105.477 649.124,104.19 650.671,104.19 C652.216,104.19 653.504,105.477 653.504,107.022 C653.504,108.568 652.216,109.855 650.671,109.855 L650.671,109.855 L650.671,109.855 Z M604.565,50.564 L603.844,170.694 C603.432,170.745 603.02,170.848 602.608,171.003 L575.46,122.992 C576.233,122.219 576.749,121.087 576.749,119.9 C576.749,118.562 576.182,117.428 575.255,116.605 L604.411,50.512 L604.565,50.564 L604.565,50.564 Z M575.203,119.9 C575.203,121.447 573.914,122.734 572.369,122.734 C570.824,122.734 569.536,121.447 569.536,119.9 C569.536,118.355 570.824,117.068 572.369,117.068 C573.915,117.068 575.203,118.355 575.203,119.9 L575.203,119.9 L575.203,119.9 Z M568.196,118.613 L527.758,113.1 C527.603,112.173 527.191,111.298 526.522,110.68 L556.503,62.256 C556.966,62.412 557.43,62.515 557.894,62.515 L558.1,62.515 L571.03,115.78 C569.69,116.141 568.609,117.222 568.196,118.613 L568.196,118.613 L568.196,118.613 Z M557.945,60.917 C556.4,60.917 555.112,59.63 555.112,58.083 C555.112,56.539 556.4,55.25 557.945,55.25 C559.491,55.25 560.778,56.539 560.778,58.083 C560.779,59.63 559.491,60.917 557.945,60.917 L557.945,60.917 L557.945,60.917 Z M473.206,108.568 C473.206,110.113 471.918,111.401 470.373,111.401 C468.828,111.401 467.54,110.113 467.54,108.568 C467.54,107.022 468.828,105.734 470.373,105.734 C471.918,105.734 473.206,107.022 473.206,108.568 L473.206,108.568 L473.206,108.568 Z M376.875,135.87 C376.875,137.416 375.587,138.705 374.042,138.705 C372.497,138.705 371.209,137.416 371.209,135.87 C371.209,134.326 372.497,133.036 374.042,133.036 C375.587,133.036 376.875,134.326 376.875,135.87 L376.875,135.87 L376.875,135.87 Z M371.517,139.475 L360.649,164.512 L360.082,164.46 C357.97,164.46 356.218,165.953 355.807,167.963 L293.166,174.093 L370.282,138.24 C370.642,138.705 371.054,139.115 371.517,139.475 L371.517,139.475 L371.517,139.475 Z M301.201,232.2 C301.252,232.511 301.304,232.768 301.407,233.024 L203.171,285.413 C202.861,285.054 202.501,284.796 202.089,284.54 L229.7,223.186 L229.854,223.186 C231.606,223.186 233.101,222.155 233.821,220.661 L301.201,232.2 L301.201,232.2 Z M202.759,288.351 C202.759,289.896 201.47,291.185 199.925,291.185 C198.38,291.185 197.092,289.896 197.092,288.351 C197.092,286.806 198.38,285.517 199.925,285.517 C201.47,285.517 202.759,286.806 202.759,288.351 L202.759,288.351 L202.759,288.351 Z M229.803,221.64 C228.258,221.64 226.97,220.353 226.97,218.808 C226.97,217.262 228.258,215.975 229.803,215.975 C231.348,215.975 232.636,217.262 232.636,218.808 C232.637,220.353 231.349,221.64 229.803,221.64 L229.803,221.64 L229.803,221.64 Z M151.759,289.38 C151.759,290.925 150.472,292.214 148.926,292.214 C147.381,292.214 146.093,290.925 146.093,289.38 C146.093,287.835 147.381,286.548 148.926,286.548 C150.472,286.548 151.759,287.835 151.759,289.38 L151.759,289.38 L151.759,289.38 Z M146.196,292.782 C146.968,293.399 147.896,293.761 148.926,293.761 C149.956,293.761 150.884,293.4 151.605,292.833 L175.404,320.083 C174.58,320.854 174.013,321.886 173.962,323.071 L68.822,345.428 L68.565,345.014 L146.196,292.782 L146.196,292.782 Z M403.404,345.274 C404.95,345.274 406.237,346.561 406.237,348.106 C406.237,349.651 404.949,350.94 403.404,350.94 C401.859,350.94 400.571,349.651 400.571,348.106 C400.571,346.561 401.859,345.274 403.404,345.274 L403.404,345.274 L403.404,345.274 Z M404.59,343.882 L417.931,285.466 C419.837,285.208 421.331,283.714 421.641,281.861 L658.758,289.433 L407.578,346.716 C407.113,345.376 405.98,344.294 404.59,343.882 L404.59,343.882 L404.59,343.882 Z M821.953,282.685 C821.953,281.138 823.241,279.851 824.787,279.851 C826.332,279.851 827.619,281.138 827.619,282.685 C827.619,284.23 826.332,285.517 824.787,285.517 C823.241,285.517 821.953,284.229 821.953,282.685 L821.953,282.685 L821.953,282.685 Z M896.648,303.804 C896.648,302.259 897.935,300.972 899.482,300.972 C901.026,300.972 902.314,302.259 902.314,303.804 C902.314,305.351 901.026,306.638 899.482,306.638 C897.936,306.638 896.648,305.351 896.648,303.804 L896.648,303.804 L896.648,303.804 Z M1004.57,197.944 C1003.024,197.944 1001.736,196.656 1001.736,195.111 C1001.736,193.565 1003.024,192.278 1004.57,192.278 C1006.116,192.278 1007.403,193.565 1007.403,195.111 C1007.403,196.656 1006.116,197.944 1004.57,197.944 L1004.57,197.944 L1004.57,197.944 Z M957.177,132.007 C955.633,132.007 954.345,130.718 954.345,129.173 C954.345,127.627 955.633,126.339 957.177,126.339 C958.723,126.339 960.01,127.627 960.01,129.173 C960.01,130.718 958.723,132.007 957.177,132.007 L957.177,132.007 L957.177,132.007 Z M952.799,129.122 L848.534,145.864 C848.173,144.834 847.454,143.907 846.526,143.39 L863.783,101.975 C864.143,102.077 864.555,102.128 864.968,102.128 C866.307,102.128 867.543,101.51 868.366,100.531 L952.953,128.194 C952.851,128.503 952.799,128.813 952.799,129.122 L952.799,129.122 L952.799,129.122 Z M864.968,100.583 C863.422,100.583 862.134,99.295 862.134,97.751 C862.134,96.204 863.422,94.917 864.968,94.917 C866.513,94.917 867.802,96.204 867.802,97.751 C867.802,99.294 866.513,100.583 864.968,100.583 L864.968,100.583 L864.968,100.583 Z M819.378,97.234 C819.378,98.781 818.091,100.068 816.545,100.068 C815,100.068 813.712,98.781 813.712,97.234 C813.712,95.69 815,94.402 816.545,94.402 C818.091,94.402 819.378,95.69 819.378,97.234 L819.378,97.234 L819.378,97.234 Z M627.487,86.675 C625.944,86.675 624.656,85.386 624.656,83.841 C624.656,82.295 625.944,81.007 627.487,81.007 C629.034,81.007 630.322,82.295 630.322,83.841 C630.322,85.386 629.034,86.675 627.487,86.675 L627.487,86.675 L627.487,86.675 Z M608.172,46.236 C608.172,47.782 606.884,49.07 605.338,49.07 C603.794,49.07 602.505,47.782 602.505,46.236 C602.505,44.691 603.794,43.403 605.338,43.403 C606.884,43.403 608.172,44.691 608.172,46.236 L608.172,46.236 L608.172,46.236 Z M602.968,49.894 L573.915,115.78 C573.503,115.625 573.039,115.522 572.627,115.522 L559.697,62.102 C561.243,61.432 562.377,59.938 562.377,58.136 L601.474,48.193 C601.784,48.915 602.299,49.481 602.968,49.894 L602.968,49.894 L602.968,49.894 Z M477.274,82.141 L470.732,104.19 L470.371,104.19 C468.569,104.19 467.023,105.27 466.353,106.817 L410.873,90.641 L410.873,90.537 C410.873,90.383 410.873,90.229 410.822,90.074 L475.163,80.08 C475.627,81.007 476.4,81.729 477.274,82.141 L477.274,82.141 L477.274,82.141 Z M406.495,87.704 C408.041,87.704 409.329,88.993 409.329,90.538 C409.329,92.084 408.041,93.372 406.495,93.372 C404.95,93.372 403.662,92.084 403.662,90.538 C403.662,88.993 404.95,87.704 406.495,87.704 L406.495,87.704 L406.495,87.704 Z M375.792,131.852 C375.278,131.645 374.658,131.492 374.041,131.492 C372.444,131.492 371.105,132.316 370.332,133.603 L331.491,120.931 L331.543,120.416 C331.543,120.056 331.491,119.746 331.44,119.386 L402.683,92.651 C402.837,92.908 402.993,93.113 403.147,93.319 L375.792,131.852 L375.792,131.852 Z M290.074,81.523 L323.661,117.79 C323.095,118.51 322.786,119.437 322.786,120.417 C322.786,121.55 323.198,122.581 323.919,123.353 L290.95,170.849 C290.538,170.539 290.023,170.334 289.508,170.231 L288.014,82.039 L288.066,82.039 C288.735,82.038 289.456,81.833 290.074,81.523 L290.074,81.523 L290.074,81.523 Z M288.529,171.671 C290.074,171.671 291.362,172.959 291.362,174.505 C291.362,176.05 290.074,177.338 288.529,177.338 C286.983,177.338 285.696,176.05 285.696,174.505 C285.695,172.959 286.983,171.671 288.529,171.671 L288.529,171.671 L288.529,171.671 Z M147.69,181.873 L225.579,217.726 C225.476,218.086 225.425,218.447 225.425,218.809 C225.425,219.118 225.476,219.479 225.528,219.788 L170.202,237.405 C169.739,235.448 168.038,234.007 165.927,234.007 C165.618,234.007 165.257,234.058 164.948,234.111 L146.146,183.059 C146.762,182.799 147.278,182.387 147.69,181.873 L147.69,181.873 L147.69,181.873 Z M165.926,235.55 C167.471,235.55 168.759,236.837 168.759,238.382 C168.759,239.929 167.471,241.216 165.926,241.216 C164.38,241.216 163.092,239.929 163.092,238.382 C163.092,236.837 164.38,235.55 165.926,235.55 L165.926,235.55 L165.926,235.55 Z M110.034,290.411 C110.034,291.956 108.746,293.245 107.201,293.245 C105.656,293.245 104.368,291.956 104.368,290.411 C104.368,288.866 105.656,287.577 107.201,287.577 C108.746,287.577 110.034,288.866 110.034,290.411 L110.034,290.411 L110.034,290.411 Z M105.191,294.274 C105.809,294.583 106.479,294.79 107.2,294.79 C109.312,294.79 111.116,293.245 111.475,291.235 L144.651,290.36 C144.754,290.77 144.908,291.184 145.166,291.594 L67.637,343.83 L105.191,294.274 L105.191,294.274 Z M67.792,347.591 C67.792,349.138 66.504,350.425 64.959,350.425 C63.414,350.425 62.126,349.138 62.126,347.591 C62.126,346.046 63.414,344.759 64.959,344.759 C66.505,344.759 67.792,346.046 67.792,347.591 L67.792,347.591 L67.792,347.591 Z M93.807,414.3 C95.352,414.3 96.64,415.589 96.64,417.136 C96.64,418.681 95.352,419.97 93.807,419.97 C92.261,419.97 90.974,418.681 90.974,417.136 C90.974,415.589 92.261,414.3 93.807,414.3 L93.807,414.3 L93.807,414.3 Z M95.867,413.272 C95.249,412.909 94.528,412.756 93.806,412.756 C93.291,412.756 92.827,412.86 92.364,413.012 L66.917,351.506 C68.359,350.785 69.389,349.291 69.389,347.59 C69.389,347.385 69.389,347.178 69.338,346.971 L174.169,324.668 C174.323,325.182 174.581,325.647 174.941,326.107 L95.867,413.272 L95.867,413.272 Z M204.046,396.786 C205.591,396.786 206.879,398.075 206.879,399.62 C206.879,401.165 205.591,402.454 204.046,402.454 C202.5,402.454 201.213,401.165 201.213,399.62 C201.213,398.075 202.5,396.786 204.046,396.786 L204.046,396.786 L204.046,396.786 Z M204.046,395.241 C203.634,395.241 203.222,395.292 202.809,395.395 L180.865,326.883 C181.535,326.365 182.05,325.699 182.359,324.924 L297.08,365.414 C297.028,365.619 297.028,365.879 297.028,366.137 C297.028,366.393 297.028,366.6 297.08,366.807 L208.013,397.766 C207.292,396.272 205.797,395.241 204.046,395.241 L204.046,395.241 L204.046,395.241 Z M297.596,368.3 C298.368,369.64 299.759,370.515 301.408,370.515 C302.953,370.515 304.292,369.744 305.066,368.507 L393.927,406.06 L208.425,399.519 L208.425,399.261 L297.596,368.3 L297.596,368.3 Z M305.682,367.114 C305.734,366.807 305.786,366.497 305.786,366.186 L399.438,350.012 C399.902,350.94 400.675,351.713 401.653,352.123 L397.687,402.504 C396.295,402.658 395.111,403.483 394.441,404.617 L305.682,367.114 L305.682,367.114 Z M398.253,403.999 C399.798,403.999 401.086,405.288 401.086,406.833 C401.086,408.376 399.799,409.665 398.253,409.665 C396.707,409.665 395.42,408.376 395.42,406.833 C395.42,405.288 396.708,403.999 398.253,403.999 L398.253,403.999 L398.253,403.999 Z M399.231,402.556 L403.197,352.435 L403.404,352.435 C405.258,352.435 406.855,351.249 407.474,349.599 L609.304,361.038 L402.373,405.288 C401.859,403.946 400.675,402.917 399.231,402.556 L399.231,402.556 L399.231,402.556 Z M612.603,361.964 C613.374,363.099 614.713,363.819 616.157,363.819 C617.754,363.819 619.144,362.942 619.918,361.653 L740.306,368.454 L413.296,404.515 L612.603,361.964 L612.603,361.964 Z M620.484,360.161 C620.534,359.903 620.534,359.696 620.534,359.438 L620.534,358.975 L695.95,324.151 C696.723,325.389 698.115,326.212 699.66,326.212 C700.845,326.212 701.977,325.7 702.751,324.925 L745.147,365.003 C744.684,365.62 744.375,366.343 744.272,367.167 L620.484,360.161 L620.484,360.161 Z M696.774,321.835 C696.774,320.288 698.062,319.001 699.608,319.001 C701.154,319.001 702.442,320.288 702.442,321.835 C702.442,323.38 701.154,324.669 699.608,324.669 C698.062,324.669 696.774,323.38 696.774,321.835 L696.774,321.835 L696.774,321.835 Z M703.576,323.638 C703.833,323.072 703.987,322.452 703.987,321.835 C703.987,319.413 702.029,317.456 699.608,317.456 C698.886,317.456 698.166,317.661 697.599,317.97 L668.442,290.411 C668.597,290.102 668.7,289.794 668.801,289.483 L820.407,283.094 C820.459,283.713 820.665,284.282 820.923,284.795 L751.689,364.641 C750.915,363.819 749.782,363.301 748.545,363.301 C747.722,363.301 746.898,363.561 746.228,363.971 L703.576,323.638 L703.576,323.638 Z M748.546,364.849 C750.092,364.849 751.379,366.138 751.379,367.681 C751.379,369.228 750.092,370.515 748.546,370.515 C747.001,370.515 745.713,369.228 745.713,367.681 C745.713,366.138 747.001,364.849 748.546,364.849 L748.546,364.849 L748.546,364.849 Z M846.166,406.317 C846.166,404.772 847.454,403.483 848.998,403.483 C850.545,403.483 851.832,404.772 851.832,406.317 C851.832,407.864 850.545,409.151 848.998,409.151 C847.454,409.151 846.166,407.864 846.166,406.317 L846.166,406.317 L846.166,406.317 Z M986.025,388.442 L1133.766,324.151 C1134.384,325.079 1135.312,325.801 1136.445,326.059 L1116.612,423.575 L1116.354,423.575 C1114.397,423.575 1112.749,424.862 1112.182,426.665 L986.23,390.606 C986.282,390.346 986.282,390.141 986.282,389.883 C986.282,389.317 986.179,388.853 986.025,388.442 L986.025,388.442 L986.025,388.442 Z M1116.354,425.118 C1117.9,425.118 1119.187,426.407 1119.187,427.952 C1119.187,429.499 1117.9,430.786 1116.354,430.786 C1114.809,430.786 1113.521,429.499 1113.521,427.952 C1113.521,426.407 1114.81,425.118 1116.354,425.118 L1116.354,425.118 L1116.354,425.118 Z M1140.309,321.835 C1140.309,323.38 1139.021,324.669 1137.476,324.669 C1135.93,324.669 1134.642,323.38 1134.642,321.835 C1134.642,320.288 1135.93,319.001 1137.476,319.001 C1139.021,319.001 1140.309,320.288 1140.309,321.835 L1140.309,321.835 L1140.309,321.835 Z M1113.779,239.671 C1115.324,239.671 1116.612,240.958 1116.612,242.505 C1116.612,244.05 1115.324,245.337 1113.779,245.337 C1112.234,245.337 1110.945,244.05 1110.945,242.505 C1110.945,240.958 1112.234,239.671 1113.779,239.671 L1113.779,239.671 L1113.779,239.671 Z M1113.779,246.882 C1114.139,246.882 1114.449,246.831 1114.757,246.78 L1136.239,317.661 C1135.825,317.765 1135.466,317.97 1135.105,318.177 L1058.865,261.615 C1059.226,260.998 1059.432,260.277 1059.432,259.502 L1059.432,259.4 L1110.275,245.13 C1111.048,246.161 1112.335,246.882 1113.779,246.882 L1113.779,246.882 L1113.779,246.882 Z M1109.71,240.958 C1109.504,241.421 1109.401,241.987 1109.401,242.505 C1109.401,242.915 1109.451,243.327 1109.553,243.689 L1059.072,257.855 C1058.401,256.257 1056.855,255.125 1055.002,255.125 C1052.581,255.125 1050.623,257.082 1050.623,259.502 C1050.623,259.762 1050.623,259.967 1050.676,260.225 L903.192,301.643 L902.985,301.282 L1031.873,194.907 C1032.491,195.217 1033.161,195.37 1033.882,195.37 C1035.274,195.37 1036.457,194.753 1037.281,193.723 L1109.71,240.958 L1109.71,240.958 Z M1036.767,190.99 C1036.767,192.535 1035.479,193.824 1033.933,193.824 C1032.388,193.824 1031.1,192.535 1031.1,190.99 C1031.1,189.445 1032.388,188.157 1033.933,188.157 C1035.479,188.157 1036.767,189.445 1036.767,190.99 L1036.767,190.99 L1036.767,190.99 Z M1029.555,190.99 L1029.555,191.35 L1008.846,194.441 C1008.538,192.38 1006.681,190.732 1004.519,190.732 L1004.467,190.732 L992.928,127.473 L993.546,127.163 L1031.563,187.28 C1030.378,188.052 1029.555,189.445 1029.555,190.99 L1029.555,190.99 L1029.555,190.99 Z M991.177,120.673 C992.722,120.673 994.009,121.961 994.009,123.507 C994.009,125.052 992.722,126.339 991.177,126.339 C989.63,126.339 988.343,125.052 988.343,123.507 C988.343,121.961 989.63,120.673 991.177,120.673 L991.177,120.673 L991.177,120.673 Z M986.9,122.581 C986.848,122.889 986.797,123.198 986.797,123.508 L986.797,123.662 L961.298,127.783 C960.679,126.083 959.083,124.846 957.176,124.846 C956.095,124.846 955.168,125.206 954.394,125.875 L907.26,96 L986.9,122.581 L986.9,122.581 Z M902.058,89.765 C903.603,89.765 904.891,91.053 904.891,92.598 C904.891,94.145 903.603,95.432 902.058,95.432 C900.513,95.432 899.225,94.145 899.225,92.598 C899.225,91.053 900.513,89.765 902.058,89.765 L902.058,89.765 L902.058,89.765 Z M897.833,91.465 C897.73,91.825 897.679,92.237 897.679,92.598 L897.679,92.908 L869.14,96.566 C868.624,94.711 866.925,93.372 864.917,93.372 C864.247,93.372 863.628,93.525 863.01,93.783 L834.162,44.999 L834.626,44.588 L897.833,91.465 L897.833,91.465 Z M831.483,38.767 C833.029,38.767 834.317,40.055 834.317,41.6 C834.317,43.145 833.029,44.432 831.483,44.432 C829.938,44.432 828.649,43.145 828.649,41.6 C828.649,40.055 829.938,38.767 831.483,38.767 L831.483,38.767 L831.483,38.767 Z M829.732,45.619 L816.751,92.856 L816.545,92.856 C815.669,92.856 814.844,93.113 814.176,93.578 L743.808,35.161 C743.962,34.851 744.065,34.543 744.118,34.182 L827.157,41.754 C827.156,43.505 828.238,44.948 829.732,45.619 L829.732,45.619 L829.732,45.619 Z M739.788,30.525 C741.335,30.525 742.622,31.812 742.622,33.357 C742.622,34.903 741.335,36.191 739.788,36.191 C738.244,36.191 736.956,34.903 736.956,33.357 C736.956,31.812 738.244,30.525 739.788,30.525 L739.788,30.525 L739.788,30.525 Z M651.546,6.365 L735.514,32.43 C735.462,32.74 735.41,33.049 735.41,33.357 C735.41,33.667 735.462,33.976 735.514,34.234 L631.455,81.987 C630.991,81.008 630.168,80.183 629.138,79.772 L647.837,8.889 C649.435,8.786 650.877,7.807 651.546,6.365 L651.546,6.365 L651.546,6.365 Z M647.58,1.677 C649.124,1.677 650.413,2.964 650.413,4.51 C650.413,6.055 649.124,7.342 647.58,7.342 C646.034,7.342 644.746,6.055 644.746,4.51 C644.746,2.964 646.034,1.677 647.58,1.677 L647.58,1.677 L647.58,1.677 Z M643.614,6.365 C643.818,6.776 644.024,7.136 644.335,7.447 L608.017,42.785 C607.295,42.218 606.37,41.91 605.39,41.91 C603.896,41.91 602.557,42.681 601.785,43.815 L558.152,22.076 C558.203,21.767 558.256,21.406 558.256,21.098 L558.256,20.891 L643.614,6.365 L643.614,6.365 Z M553.824,18.161 C555.37,18.161 556.657,19.449 556.657,20.995 C556.657,22.54 555.369,23.829 553.824,23.829 C552.279,23.829 550.991,22.54 550.991,20.995 C550.991,19.449 552.279,18.161 553.824,18.161 L553.824,18.161 L553.824,18.161 Z M465.479,18.007 L549.446,21.304 C549.498,22.025 549.705,22.695 550.065,23.313 L482.376,75.291 C481.551,74.414 480.417,73.848 479.129,73.848 C478.923,73.848 478.717,73.848 478.511,73.901 L463.212,21.768 C464.552,20.995 465.426,19.604 465.479,18.007 L465.479,18.007 L465.479,18.007 Z M461.1,15.07 C462.645,15.07 463.933,16.359 463.933,17.904 C463.933,19.449 462.645,20.738 461.1,20.738 C459.554,20.738 458.266,19.449 458.266,17.904 C458.266,16.359 459.554,15.07 461.1,15.07 L461.1,15.07 L461.1,15.07 Z M457.287,20.067 C458.06,21.406 459.451,22.282 461.1,22.282 C461.305,22.282 461.512,22.282 461.718,22.231 L477.018,74.311 C476.038,74.877 475.267,75.753 474.906,76.886 L395.317,57.672 C395.368,57.466 395.368,57.26 395.368,57.054 C395.368,56.539 395.266,56.024 395.111,55.56 L457.287,20.067 L457.287,20.067 Z M391.041,54.221 C392.586,54.221 393.874,55.509 393.874,57.054 C393.874,58.6 392.586,59.887 391.041,59.887 C389.495,59.887 388.208,58.6 388.208,57.054 C388.208,55.509 389.495,54.221 391.041,54.221 L391.041,54.221 L391.041,54.221 Z M387.023,58.805 C387.693,60.351 389.238,61.432 391.041,61.432 C391.299,61.432 391.608,61.381 391.865,61.328 L403.764,87.086 C403.044,87.652 402.529,88.426 402.27,89.353 L292.34,76.99 L387.023,58.805 L387.023,58.805 Z M288.013,74.827 C289.559,74.827 290.846,76.115 290.846,77.659 C290.846,79.206 289.558,80.493 288.013,80.493 C286.468,80.493 285.18,79.206 285.18,77.659 C285.18,76.115 286.468,74.827 288.013,74.827 L288.013,74.827 L288.013,74.827 Z M286.417,81.729 L287.911,170.178 C286.674,170.331 285.593,171.054 284.924,172.032 L233.719,140.969 C234.028,140.351 234.183,139.682 234.183,138.96 C234.183,138.137 233.925,137.363 233.564,136.693 L284.924,80.75 C285.335,81.163 285.851,81.523 286.417,81.729 L286.417,81.729 L286.417,81.729 Z M229.803,136.127 C231.348,136.127 232.636,137.415 232.636,138.96 C232.636,140.506 231.348,141.794 229.803,141.794 C228.258,141.794 226.97,140.506 226.97,138.96 C226.97,137.416 228.258,136.127 229.803,136.127 L229.803,136.127 L229.803,136.127 Z M226.609,141.949 C227.433,142.826 228.567,143.34 229.803,143.34 C230.936,143.34 231.966,142.928 232.74,142.206 L284.254,173.476 C284.15,173.836 284.099,174.146 284.099,174.506 L284.099,174.66 L148.566,178.472 L148.514,178.112 L226.609,141.949 L226.609,141.949 Z M144.291,176.308 C145.836,176.308 147.124,177.596 147.124,179.142 C147.124,180.688 145.836,181.975 144.291,181.975 C142.746,181.975 141.458,180.688 141.458,179.142 C141.458,177.596 142.745,176.308 144.291,176.308 L144.291,176.308 L144.291,176.308 Z M143.363,183.417 C143.673,183.47 143.981,183.521 144.291,183.521 L144.703,183.521 L163.557,234.727 C162.373,235.5 161.548,236.838 161.548,238.383 C161.548,239.002 161.651,239.569 161.909,240.084 L121.007,253.115 C120.646,252.344 120.131,251.674 119.41,251.211 L143.363,183.417 L143.363,183.417 Z M116.988,252.034 C118.533,252.034 119.821,253.321 119.821,254.866 C119.821,256.413 118.533,257.7 116.988,257.7 C115.442,257.7 114.155,256.413 114.155,254.866 C114.155,253.321 115.442,252.034 116.988,252.034 L116.988,252.034 L116.988,252.034 Z M114.412,258.37 C114.773,258.628 115.237,258.884 115.701,259.038 L107.613,286.032 L107.252,286.032 C104.832,286.032 102.874,287.989 102.874,290.411 C102.874,290.722 102.925,291.028 102.977,291.288 L49.814,311.067 L114.412,258.37 L114.412,258.37 Z M49.763,312.665 L103.492,292.679 L103.956,293.296 L66.042,343.317 C65.681,343.213 65.321,343.161 64.96,343.161 C64.342,343.161 63.724,343.317 63.157,343.573 L47.96,316.065 C49.041,315.292 49.711,314.056 49.763,312.665 L49.763,312.665 L49.763,312.665 Z M42.55,312.562 C42.55,311.017 43.838,309.73 45.383,309.73 C46.929,309.73 48.216,311.017 48.216,312.562 C48.216,314.109 46.929,315.396 45.383,315.396 C43.838,315.396 42.55,314.108 42.55,312.562 L42.55,312.562 L42.55,312.562 Z M45.384,393.181 C46.93,393.181 48.217,394.468 48.217,396.015 C48.217,397.56 46.93,398.847 45.384,398.847 C43.839,398.847 42.551,397.56 42.551,396.015 C42.55,394.468 43.838,393.181 45.384,393.181 L45.384,393.181 L45.384,393.181 Z M43.787,400.085 C44.302,400.29 44.817,400.394 45.384,400.394 C46.723,400.394 47.96,399.775 48.784,398.798 L89.531,416.466 C89.48,416.671 89.48,416.878 89.48,417.085 C89.48,417.546 89.531,417.958 89.687,418.319 L3.916,464.167 L43.787,400.085 L43.787,400.085 Z M4.739,465.507 L90.303,419.763 C91.128,420.792 92.364,421.513 93.806,421.513 C95.248,421.513 96.537,420.792 97.309,419.763 L212.391,465.558 L4.739,465.558 L4.739,465.507 L4.739,465.507 Z M98.031,418.372 C98.133,418.061 98.185,417.702 98.185,417.341 L200.08,401.476 C200.699,402.814 201.986,403.792 203.48,403.999 L215.38,465.042 L98.031,418.372 L98.031,418.372 Z M217.028,465.507 L205.026,403.845 C205.797,403.638 206.52,403.279 207.086,402.712 L334.634,465.454 L217.028,465.454 L217.028,465.507 L217.028,465.507 Z M208.013,401.476 L208.168,401.062 L393.926,407.605 C394.029,408.224 394.286,408.791 394.647,409.304 L337.828,465.353 L208.013,401.476 L208.013,401.476 Z M339.888,465.507 L395.781,410.386 C396.502,410.904 397.327,411.159 398.254,411.159 C399.953,411.159 401.396,410.231 402.117,408.841 L612.191,465.507 L339.888,465.507 L339.888,465.507 Z M402.58,407.399 L402.58,407.297 L744.58,369.588 C744.787,370.051 745.095,370.461 745.404,370.772 L617.856,465.454 L402.58,407.399 L402.58,407.399 Z M620.381,465.507 L746.795,371.7 C747.311,371.958 747.929,372.059 748.546,372.059 C749.01,372.059 749.474,371.957 749.886,371.854 L778.373,465.557 L620.381,465.557 L620.381,465.507 L620.381,465.507 Z M751.276,371.081 C751.636,370.772 751.946,370.462 752.203,370.052 L844.62,406.163 L844.62,406.265 C844.62,407.245 844.928,408.12 845.443,408.841 L779.867,464.888 L751.276,371.081 L751.276,371.081 Z M781.566,465.507 L846.577,409.923 C847.298,410.386 848.123,410.646 848.998,410.646 C850.389,410.646 851.625,409.976 852.45,408.945 L1022.651,465.455 L781.566,465.455 L781.566,465.507 L781.566,465.507 Z M853.17,407.657 C853.223,407.501 853.274,407.346 853.274,407.245 L977.678,391.069 C978.195,392.924 979.895,394.262 981.904,394.262 C982.161,394.262 982.368,394.262 982.574,394.211 L1025.638,464.938 L853.17,407.657 L853.17,407.657 Z M984.067,393.646 C984.737,393.285 985.303,392.718 985.665,392.048 L1111.976,428.21 C1111.976,428.675 1112.08,429.138 1112.286,429.55 L1027.752,465.353 L984.067,393.646 L984.067,393.646 Z M1031.202,465.507 L1113.057,430.837 C1113.881,431.714 1115.015,432.331 1116.302,432.331 C1117.436,432.331 1118.465,431.919 1119.239,431.198 L1179.201,465.507 L1031.202,465.507 L1031.202,465.507 Z M1181.417,464.991 L1120.218,429.962 C1120.529,429.343 1120.734,428.675 1120.734,427.952 C1120.734,427.643 1120.683,427.335 1120.631,427.075 L1182.499,391.585 C1183.219,392.46 1184.249,393.026 1185.436,393.181 L1181.417,464.991 L1181.417,464.991 Z M1185.897,391.636 C1184.353,391.636 1183.065,390.347 1183.065,388.802 C1183.065,387.257 1184.353,385.968 1185.897,385.968 C1187.443,385.968 1188.73,387.257 1188.73,388.802 C1188.73,390.347 1187.443,391.636 1185.897,391.636 L1185.897,391.636 L1185.897,391.636 Z" id="Shape"></path>
            </g>
        </g>
    </g>
</svg>